<svg width="25" height="26" viewBox="0 0 25 26" fill="none" xmlns="http://www.w3.org/2000/svg">
<path d="M12.5028 6.59032C8.95566 6.59032 6.09453 9.45208 6.09453 13C6.09453 16.5479 8.95566 19.4097 12.5028 19.4097C16.0499 19.4097 18.911 16.5479 18.911 13C18.911 9.45208 16.0499 6.59032 12.5028 6.59032ZM12.5028 17.1671C10.2105 17.1671 8.33659 15.2983 8.33659 13C8.33659 10.7017 10.205 8.83287 12.5028 8.83287C14.8006 8.83287 16.669 10.7017 16.669 13C16.669 15.2983 14.795 17.1671 12.5028 17.1671ZM20.6679 6.32813C20.6679 7.15932 19.9986 7.82316 19.1732 7.82316C18.3422 7.82316 17.6785 7.15374 17.6785 6.32813C17.6785 5.50251 18.3477 4.83309 19.1732 4.83309C19.9986 4.83309 20.6679 5.50251 20.6679 6.32813ZM24.9122 7.84548C24.8173 5.8428 24.36 4.06884 22.8932 2.60727C21.432 1.14571 19.6584 0.688274 17.6562 0.587861C15.5926 0.470713 9.40742 0.470713 7.34384 0.587861C5.34718 0.682696 3.57362 1.14013 2.1068 2.6017C0.639989 4.06326 0.188232 5.83722 0.0878416 7.8399C-0.0292805 9.90394 -0.0292805 16.0905 0.0878416 18.1545C0.182655 20.1572 0.639989 21.9312 2.1068 23.3927C3.57362 24.8543 5.34161 25.3117 7.34384 25.4121C9.40742 25.5293 15.5926 25.5293 17.6562 25.4121C19.6584 25.3173 21.432 24.8599 22.8932 23.3927C24.3544 21.9312 24.8118 20.1572 24.9122 18.1545C25.0293 16.0905 25.0293 9.90952 24.9122 7.84548ZM22.2462 20.3692C21.8112 21.4626 20.969 22.3049 19.8703 22.7456C18.225 23.3983 14.321 23.2477 12.5028 23.2477C10.6846 23.2477 6.77496 23.3927 5.13525 22.7456C4.04211 22.3105 3.19994 21.4681 2.75934 20.3692C2.1068 18.7235 2.25739 14.8186 2.25739 13C2.25739 11.1814 2.11238 7.27089 2.75934 5.63082C3.19437 4.53743 4.03653 3.69508 5.13525 3.25438C6.78054 2.6017 10.6846 2.75232 12.5028 2.75232C14.321 2.75232 18.2306 2.60727 19.8703 3.25438C20.9635 3.6895 21.8056 4.53185 22.2462 5.63082C22.8988 7.27647 22.7482 11.1814 22.7482 13C22.7482 14.8186 22.8988 18.7291 22.2462 20.3692Z" fill="black"/>
</svg>
