<svg width="25" height="26" viewBox="0 0 25 26" fill="none" xmlns="http://www.w3.org/2000/svg">
<path d="M12.5 0.890625C5.81055 0.890625 0.390625 6.31055 0.390625 13C0.390625 19.6895 5.81055 25.1094 12.5 25.1094C19.1895 25.1094 24.6094 19.6895 24.6094 13C24.6094 6.31055 19.1895 0.890625 12.5 0.890625ZM15.2881 17.9854L10.9814 14.8555C10.8301 14.7432 10.7422 14.5674 10.7422 14.3818V6.16406C10.7422 5.8418 11.0059 5.57812 11.3281 5.57812H13.6719C13.9941 5.57812 14.2578 5.8418 14.2578 6.16406V12.8877L17.3584 15.1436C17.6221 15.334 17.6758 15.7002 17.4854 15.9639L16.1084 17.8584C15.918 18.1172 15.5518 18.1758 15.2881 17.9854Z" fill="black"/>
</svg>
