<svg width="25" height="20" viewBox="0 0 25 20" fill="none" xmlns="http://www.w3.org/2000/svg">
<path d="M24.2188 16.3333H3.125V1.29167C3.125 0.854271 2.77539 0.5 2.34375 0.5H0.78125C0.349609 0.5 0 0.854271 0 1.29167V17.9167C0 18.791 0.699707 19.5 1.5625 19.5H24.2188C24.6504 19.5 25 19.1457 25 18.7083V17.125C25 16.6876 24.6504 16.3333 24.2188 16.3333ZM22.6562 2.08333H16.8916C15.8477 2.08333 15.3247 3.36237 16.063 4.11049L17.645 5.71362L14.0625 9.3444L10.48 5.71412C9.86963 5.09563 8.88037 5.09563 8.27051 5.71412L4.9165 9.11284C4.61133 9.42208 4.61133 9.92331 4.9165 10.2326L6.021 11.3518C6.32617 11.661 6.8208 11.661 7.12598 11.3518L9.375 9.07227L12.9575 12.7026C13.5679 13.321 14.5571 13.321 15.167 12.7026L19.8545 7.95255L21.4365 9.55568C22.1748 10.3038 23.437 9.77388 23.437 8.71602V2.875C23.4375 2.4376 23.0879 2.08333 22.6562 2.08333Z" fill="black"/>
</svg>
